<?xml version="1.0" encoding="iso-8859-1"?>
<!-- Generator: Adobe Illustrator 19.0.0, SVG Export Plug-In . SVG Version: 6.00 Build 0)  -->
<svg version="1.1" id="Capa_1" xmlns="http://www.w3.org/2000/svg" xmlns:xlink="http://www.w3.org/1999/xlink" x="0px" y="0px"
	 viewBox="0 0 480.012 480.012" style="enable-background:new 0 0 480.012 480.012;" xml:space="preserve">
<g>
	<g>
		<path d="M16.006,464.012V347.324l104-104L226.35,349.668c1.512,1.512,3.552,2.344,5.656,2.344c0.424,0,0.856-0.032,1.28-0.104
			c2.536-0.416,4.72-2.024,5.872-4.32L346.19,133.516l104.152,104.152l11.312-11.312l-112-112c-1.824-1.824-4.416-2.672-6.936-2.24
			c-2.536,0.416-4.72,2.024-5.872,4.32L229.814,330.508L125.662,226.356c-3.128-3.128-8.184-3.128-11.312,0L16.006,324.7v-89.008
			l104.928-89.936l107.104,61.2c3.808,2.176,8.664,0.872,10.88-2.912l109.08-186.992l106.336,22.784l3.352-15.64l-112-24
			c-3.392-0.776-6.84,0.808-8.584,3.792l-108,185.152l-105.12-60.064c-2.936-1.68-6.608-1.328-9.176,0.872l-98.8,84.672V0.012h-16
			v472c0,4.424,3.584,8,8,8h472v-16H16.006z" fill='#444'/>
	</g>
</g>
<g>
</g>
<g>
</g>
<g>
</g>
<g>
</g>
<g>
</g>
<g>
</g>
<g>
</g>
<g>
</g>
<g>
</g>
<g>
</g>
<g>
</g>
<g>
</g>
<g>
</g>
<g>
</g>
<g>
</g>
</svg>
