<svg id="Capa_1" enable-background="new 0 0 512.001 512.001" height="512" viewBox="0 0 512.001 512.001" width="512" xmlns="http://www.w3.org/2000/svg" fill="#444"><g><path d="m21.976 0v430.114h15v-415.114h290.585v60.35h60.351v421.651h-350.936v-51.886h-15v66.886h380.936v-447.258l-64.744-64.743zm320.585 25.606 34.745 34.744h-34.745z"/><path d="m490.025 105.693-14.902-16.658v-34.635h-44.999v34.635l-14.902 16.658 7.774 291.683h7.129v24.27l22.5 44.999 22.499-44.999v-24.27h7.129zm-52.424 276.683-2.858-107.25h35.762l-2.858 107.25zm-3.258-122.251-3.968-148.874 10.603-11.852h23.292l10.603 11.852-3.968 148.874zm10.781-190.725h14.999v14.999h-14.999zm14.999 348.704-7.499 14.999-7.5-14.999v-20.729h14.999z"/><path d="m72.306 325.033h15v15h-15z"/><path d="m102.305 325.033h106.968v15h-106.968z"/><path d="m261.913 248.5h90.667v15h-90.667z"/><path d="m72.306 248.5h174.606v15h-174.606z"/><path d="m72.306 286.767h55.376v15h-55.376z"/><path d="m142.682 286.767h209.898v15h-209.898z"/><path d="m72.306 210.233h55.376v15h-55.376z"/><path d="m142.682 210.233h209.898v15h-209.898z"/><path d="m261.913 133.7h90.667v15h-90.667z"/><path d="m72.306 133.7h174.606v15h-174.606z"/><path d="m246.912 171.967h-104.23-15-55.376v15h55.376 15 104.23 15.001 90.667v-15h-90.667z"/><path d="m102.305 363.3h106.968v15h-106.968z"/><path d="m72.306 363.3h15v15h-15z"/><path d="m275.613 95.434h76.967v15h-76.967z"/><path d="m215.613 95.434h15.001v15h-15.001z"/><path d="m245.613 95.434h15v15h-15z"/><path d="m445.124 121.899h15v65.228h-15z"/><path d="m445.124 202.127h15v15h-15z"/><path d="m96.976 30h15v15h-15z"/><path d="m51.975 82.5h15v-37.5h15v-15h-30z"/><path d="m126.976 30h15v15h-15z"/><path d="m290.412 467.001h15v15h-15z"/><path d="m372.912 452.001h-15v15h-37.5v15h52.5z"/><path d="m352.58 363.3h-90v52.5h90zm-15 37.5h-60v-22.5h60z"/></g></svg>