<svg xmlns="http://www.w3.org/2000/svg" xmlns:xlink="http://www.w3.org/1999/xlink" version="1.1" x="0px" y="0px" viewBox="0 0 80 87.5" style="enable-background:new 0 0 80 70;" xml:space="preserve"><style type="text/css">
	.st0{stroke:#000000;stroke-width:0.4;stroke-miterlimit:10;}
</style><g><path d="M29.3,45.4c-5.9-3.1-12-5.9-17.9-8.8c4.8-4.8,9.4-9.8,13.5-15.3c1.1-1.4-1.4-3.3-2.5-1.9c-4.7,5.9-9.8,11.5-15.5,16.4   c-0.9,0.8-0.6,2.4,0.4,2.9C14,42.3,20.7,46.3,27.8,49C29.9,49.7,31.2,46.4,29.3,45.4z" fill='#444'/><path d="M46.4,11.8c-2.1,7.8-4.4,15.5-7.2,23.1c-2.7,7.5-7,14.8-8.9,22.5c-0.4,1.8,1.8,2.6,2.8,1.2c4.3-6.2,6.6-14.8,9.1-21.9   c2.8-7.9,5.1-16,7.2-24.1C49.9,10.7,46.9,9.8,46.4,11.8z" fill='#444'/><path d="M73.1,34.9C67.3,29,61.2,23.3,54.7,18c-1.7-1.4-4.2,1-2.5,2.5c5.8,4.8,11.3,9.9,16.4,15.3c-5.5,3-11.2,6.1-16.3,9.7   c-1.8,1.3-0.3,4,1.8,3.1c6.4-2.9,12.5-7,18.5-10.7C73.8,37.2,74,35.8,73.1,34.9z" fill='#444'/></g><path class="st0" d="M-207.8,293.3" fill='#444'/></svg>