<svg xmlns="http://www.w3.org/2000/svg" data-name="Layer 1" viewBox="0 0 100 125" x="0px" y="0px"><title>Artboard 219</title><path d="M7.1,80.74,7.27,84l.08,1.61c.05.63,0,.85.14,1.9a6.43,6.43,0,0,0,2.65,4.34,6.51,6.51,0,0,0,2.32,1,7.29,7.29,0,0,0,2.17.09l6.44-.46c.54,0,1-.79,1-1.72s-.42-1.69-1-1.72l-.15,0-6.44-.46c-1.5,0-1.84-.93-1.85-1.7q.31-6.34.61-12.69l.37-12.88.1-6.44c0-.34.1-.35.39-.38l6.45,0H22a.33.33,0,0,1,.14,0,.36.36,0,0,1,.23.19L22.8,66.3q.3,6.44.61,12.88l.39,6.44c.08,1.32.18,1.57-.05,2.12a2.12,2.12,0,0,1-1.19,1.16h0A2.79,2.79,0,0,0,22,90.74c0,.93.56,1.73,1.37,1.6l.21,0a5.89,5.89,0,0,0,3.73-2.73,6.06,6.06,0,0,0,.79-2.3l.14-1.79L28.66,79q.3-6.47.6-12.89l.21-6.44.09-3.22,0-1.61A7.6,7.6,0,0,0,25,47.69a7.76,7.76,0,0,0-3-.62H20.4l-6.51,0a7.74,7.74,0,0,0-5.51,2.48,7.82,7.82,0,0,0-2,5.46l.09,6.45L6.83,74.3Z" fill= '#444444'/><path d="M38.34,17.1l0,2.83.09,11.35L38.83,54l.61,22.68.2,5.67.1,2.84,0,1.42a6.78,6.78,0,0,0,.36,2.07,6.1,6.1,0,0,0,2.72,3.27,6,6,0,0,0,2,.73,7.68,7.68,0,0,0,1.06.08l.74,0,5.67-.24a1.72,1.72,0,0,0,0-3.44l-.26,0-5.67-.23a1.93,1.93,0,0,1-2.12-1.59l.33-10.79.62-22.68L45.61,31l.1-11.35,0-5c.08-.13,0-.24.42-.23h7.92a.26.26,0,0,1,.19.1.31.31,0,0,1,.1.23l0,2.84,0,5.67L54.8,46l.61,22.68L55.8,80,56,85.66a4.6,4.6,0,0,1-.08,2,2.14,2.14,0,0,1-1,1.14h0a2.71,2.71,0,0,0-.91,2c-.08.92,1,1.79,2.36,1.26l.35-.15a5.92,5.92,0,0,0,2.78-2.95,5.72,5.72,0,0,0,.46-2l.07-1.46.22-5.66.39-11.35.6-22.68L61.62,23l.06-5.67V14.3a7.67,7.67,0,0,0-6.92-7.22l-.68,0h-8.3a7.71,7.71,0,0,0-7.39,6.78,14.68,14.68,0,0,0,0,1.86Z" fill= '#444444'/><path d="M70.83,66.17,71.44,83l.1,2.1,0,1.05c0,.33,0,.67.08,1.31a6.3,6.3,0,0,0,3.88,5,6.5,6.5,0,0,0,2.93.41l2.1-.11,4.2-.24a1.81,1.81,0,0,0,0-3.44l-.2,0-4.2-.23-2.09-.12a1.81,1.81,0,0,1-1.06-.3,1.68,1.68,0,0,1-.79-1.52l.18-4L77.24,66l.37-16.8.1-8.41v-2c0-.06,0-.1.06-.14s.06-.14.35-.14l7.94,0a.36.36,0,0,1,.29.17.24.24,0,0,1,0,.09.08.08,0,0,0,0,.05v.52l0,2.1.36,16.81L87.41,75l.39,8.4.11,2.1c0,.72.1,1.48.07,1.68a2.13,2.13,0,0,1-1.26,1.71h0A2.56,2.56,0,0,0,86,90.74a1.41,1.41,0,0,0,1.77,1.49l.27-.09A5.89,5.89,0,0,0,92,87.7c.18-1.21.12-1.66.19-2.42l.11-2.1.39-8.4.6-16.8.36-16.81,0-2.1a9,9,0,0,0-.11-1.7,7.68,7.68,0,0,0-6.92-6.29l-8.77,0a7.71,7.71,0,0,0-6.59,4,8,8,0,0,0-.92,3.79l0,2.1.09,8.4Z" fill= '#444444'/></svg>