<svg xmlns="http://www.w3.org/2000/svg" xmlns:xlink="http://www.w3.org/1999/xlink" version="1.1" x="0px" y="0px" viewBox="0 0 64 80" enable-background="new 0 0 64 64" xml:space="preserve"><g><g><path fill-rule="evenodd" clip-rule="evenodd" d="M14.862,11.955c0.733,2.405,5.947,3.094,4.56-0.96    C18.189,9.737,15.44,10.497,14.862,11.955z" fill='#444'/><path fill-rule="evenodd" clip-rule="evenodd" d="M7.837,30.786c-0.047,0.13-0.104,0.253-0.175,0.368    C7.847,31.042,7.878,30.893,7.837,30.786z" fill='#444'/><path fill-rule="evenodd" clip-rule="evenodd" d="M58.782,7.154c-5.524-0.771-11.093-0.317-16.08-0.48    c-3.02-0.099-5.396-0.74-7.439,0c0.026-0.453,0.793-0.167,0.72-0.72c-0.715,0.349-1.603,0.813-1.92-0.24c-0.64,0-1.28,0-1.92,0    c0.54,0.561-1.211,1.046-1.68,0.72c-0.168-0.117,1.6-0.493,0.48-0.72c-0.16,0-0.32,0-0.48,0c-0.618,1.018-2.514-0.319-3.12,0.96    c-0.499-0.224-0.457-0.747-1.44-0.96c-0.08,0-0.16,0-0.24,0c-0.384,0.417-1.081,0.52-1.92,0.48c0-0.16,0-0.32,0-0.48    c-1.04,0-2.08,0-3.12,0c-2.685,1.072-6.53-0.554-9.12,1.2c-0.476-0.554,0.061-0.267,0.24-0.72C9.622,6.12,4.83,5.101,4.062,7.634    c0,5.36,0,10.72,0,16.08c0.431,8.022,0.343,18.013,0.48,26.16c0.058,3.44-1.194,7.357,1.44,7.92c1.52,0,3.04,0,4.56,0    c0.915-0.571,2.316-0.422,3.36,0c0.32,0,0.64,0,0.96,0c9.04-0.693,16.559-0.196,24.72-0.72c5.924-0.38,15.316,0.722,19.44-0.479    C59.135,41.536,59.173,23.692,58.782,7.154z M56.862,54.914c-16.308-0.138-32.59,0.069-49.92,0    c0.082-7.683,0.938-14.221,0.48-20.399c0.823,1.109-0.149-0.999,0.96-1.2c-0.187-0.933-0.413-1.828-0.96-2.4    c0.11-0.36,0.352-0.297,0.415-0.128c0.321-0.884,0.125-2.09-0.415-3.232c0.493,0.486,0.479-0.098,0.72-0.48    c0.395-3.352-1.403-7.732,0.96-9.84c1.012-0.041-0.004,0.369,0,0.72c15.299-0.132,30.825-0.485,47.28-0.24    C56.21,30.837,57.178,40.932,56.862,54.914z M56.862,14.354c-0.49,0.329-4.004,0.591-3.359-0.24    c-2.388,0.481-3.933,0.969-4.561-0.48c-1.77,1.289-2.048-0.391-3.36,0.96c-1.784-1.142-6.902-0.869-8.64,0.24    c-0.067-0.388,0.227-0.413,0.24-0.72c-4.431,0.067-8.353,0.063-12.96,0c4.081-2.056-1.607-5.775-3.36-2.4    c-0.025,1.706,2.374,0.987,2.16,2.88c-3.385-0.64-6.728,0.059-11.04-0.24c4.313-1.896-1.036-6.21-3.12-2.64    c0.139,1.306,2.259,1.895,2.4,2.4c-0.021,0.811-2.173,0.131-3.6,0.24c-0.082-2.053-0.082-2.748,0-4.8    c15.078-0.825,31.791-0.307,49.44-0.48C57.051,10.991,56.78,13.67,56.862,14.354z" fill='#444'/><path fill-rule="evenodd" clip-rule="evenodd" d="M43.902,21.074c-1.749,1.069-3.436,3.148-5.04,3.6    c0.28,0.428-0.956,1.927-1.92,1.2c0.593,1.55-1.092,0.35-0.479,1.92c-1.378-0.209-2.853,1.432-3.12,3.12    c-0.267,0.066-0.386-0.412-0.72-0.24c-0.834,0.428-4.279,4.173-4.8,5.041c-1.062,1.768-0.486,3.266,0.24,5.039    c-0.498-0.462-1.163-0.757-1.68-1.199c-3.334-0.865-4.413,0.582-6.48,0.72c0.515,0.962-0.253,0.739-0.24,0.72    c-0.929,1.324-0.016,3.503-0.48,6c-0.298,1.604-1.856,2.551-0.96,3.601c3.679,2.921,12.124-1.924,11.52-6.96    c-0.139-1.16-1.099-1.554-1.2-2.881c0.283,0.358,0.603,0.678,0.96,0.961c4.377,0.412,5.807-3.025,7.92-5.761    c0.655-0.848,1.661-1.254,2.159-1.68c1.704-1.457,3.295-3.929,5.04-5.52c1.315-1.199,2.483-2.234,3.36-3.6    C48.293,22.124,46.934,20.764,43.902,21.074z M26.862,46.515c-1.527,0.522-2.464,0.272-4.08,0.479    c0.269-2.623-0.675-4.654,0.96-5.52C25.564,40.509,29.309,44.244,26.862,46.515z M42.702,26.594    c-0.858,0.748-0.308,0.806-0.96,0.72c-0.423-0.056-1.663,1.223-1.199,1.92c-1.054-0.319-2.311,0.757-2.4,2.64    c-0.233-0.007-0.187-0.294-0.24-0.48c-2.768,1.951-4.221,5.219-7.2,6.96c4.022-5.818,9.249-10.432,14.16-15.36    c0.694,0.106,1.094,0.506,1.2,1.2C45.148,25.626,43.239,26.127,42.702,26.594z" fill='#444'/></g></g></svg>